<svg width="130" height="43" viewBox="0 0 130 43" fill="none" xmlns="http://www.w3.org/2000/svg">
<path d="M0 15C0 6.71573 6.71573 0 15 0H115C123.284 0 130 6.71573 130 15V28C130 36.2843 123.284 43 115 43H15C6.71573 43 0 36.2843 0 28V15Z" fill="white"/>
<path fill-rule="evenodd" clip-rule="evenodd" d="M115 2H15C7.8203 2 2 7.8203 2 15V28C2 35.1797 7.8203 41 15 41H115C122.18 41 128 35.1797 128 28V15C128 7.8203 122.18 2 115 2ZM15 0C6.71573 0 0 6.71573 0 15V28C0 36.2843 6.71573 43 15 43H115C123.284 43 130 36.2843 130 28V15C130 6.71573 123.284 0 115 0H15Z" fill="#AE8625"/>
<path d="M15.1484 12.9375H18.125L22.5078 25.4648L26.8906 12.9375H29.8672L23.7031 30H21.3125L15.1484 12.9375ZM13.543 12.9375H16.5078L17.0469 25.1484V30H13.543V12.9375ZM28.5078 12.9375H31.4844V30H27.9688V25.1484L28.5078 12.9375Z" fill="#AE8625"/>
<path d="M43.9883 12.9375H47.4922V24.2109C47.4922 25.5234 47.2109 26.6289 46.6484 27.5273C46.0938 28.4258 45.3242 29.1016 44.3398 29.5547C43.3633 30.0078 42.2383 30.2344 40.9648 30.2344C39.6914 30.2344 38.5586 30.0078 37.5664 29.5547C36.582 29.1016 35.8086 28.4258 35.2461 27.5273C34.6914 26.6289 34.4141 25.5234 34.4141 24.2109V12.9375H37.9297V24.2109C37.9297 24.9766 38.0508 25.6016 38.293 26.0859C38.5352 26.5703 38.8828 26.9258 39.3359 27.1523C39.7969 27.3789 40.3398 27.4922 40.9648 27.4922C41.6055 27.4922 42.1484 27.3789 42.5938 27.1523C43.0469 26.9258 43.3906 26.5703 43.625 26.0859C43.8672 25.6016 43.9883 24.9766 43.9883 24.2109V12.9375Z" fill="#AE8625"/>
<path d="M57.0664 15.8555L52.4258 30H48.6875L55.0273 12.9375H57.4062L57.0664 15.8555ZM60.9219 30L56.2695 15.8555L55.8945 12.9375H58.2969L64.6719 30H60.9219ZM60.7109 23.6484V26.4023H51.6992V23.6484H60.7109Z" fill="#AE8625"/>
<path d="M80.1406 12.9375V30H76.625L69.7695 18.5625V30H66.2539V12.9375H69.7695L76.6367 24.3867V12.9375H80.1406Z" fill="#AE8625"/>
<path d="M90.1016 24.7617V12.9375H93.6055V24.7617C93.6055 25.9023 93.3555 26.8828 92.8555 27.7031C92.3555 28.5156 91.6719 29.1406 90.8047 29.5781C89.9453 30.0156 88.9766 30.2344 87.8984 30.2344C86.7812 30.2344 85.793 30.0469 84.9336 29.6719C84.0742 29.2969 83.3984 28.7227 82.9062 27.9492C82.4141 27.168 82.168 26.1797 82.168 24.9844H85.6953C85.6953 25.6094 85.7812 26.1055 85.9531 26.4727C86.1328 26.8398 86.3867 27.1016 86.7148 27.2578C87.043 27.4141 87.4375 27.4922 87.8984 27.4922C88.3438 27.4922 88.7305 27.3867 89.0586 27.1758C89.3867 26.9648 89.6406 26.6562 89.8203 26.25C90.0078 25.8438 90.1016 25.3477 90.1016 24.7617Z" fill="#AE8625"/>
<path d="M103.285 15.8555L98.6445 30H94.9062L101.246 12.9375H103.625L103.285 15.8555ZM107.141 30L102.488 15.8555L102.113 12.9375H104.516L110.891 30H107.141ZM106.93 23.6484V26.4023H97.918V23.6484H106.93Z" fill="#AE8625"/>
<path d="M116.211 12.9375V30H112.707V12.9375H116.211Z" fill="#AE8625"/>
</svg>
